<?xml version="1.0" encoding="UTF-8"?>
<svg width="138" height="80" version="1.1" viewBox="0 0 138 80" xml:space="preserve" xmlns="http://www.w3.org/2000/svg" xmlns:cc="http://creativecommons.org/ns#" xmlns:dc="http://purl.org/dc/elements/1.1/" xmlns:rdf="http://www.w3.org/1999/02/22-rdf-syntax-ns#"><metadata><rdf:RDF><cc:Work rdf:about=""><dc:format>image/svg+xml</dc:format><dc:type rdf:resource="http://purl.org/dc/dcmitype/StillImage"/><dc:title/></cc:Work></rdf:RDF></metadata><defs><clipPath id="clipPath62"><path d="M 0,92.4 H 169.548 V 0 H 0 Z"/></clipPath></defs><g transform="matrix(.80973 0 0 -.80973 .35571 77.41)"><path d="m10.487 62.838h-1.211v17.834h1.211z" fill="#f7932a"/><g transform="translate(11.901 86.668)"><path d="m0 0 28.969-28.969-0.857-0.856-28.968 28.969z" fill="#532971"/></g><g transform="translate(23.977 28.367)"><path d="m0 0 0.022-0.035v0.057z" fill="#532971"/></g><g transform="translate(22.629 28.496)"><path d="m0 0h-1.211l-8.222 14.881h1.218z" fill="#f7932a"/></g><path d="m1e-3 43.377h19.761v19.461h-19.761z" fill="#532971"/><path d="m52.735 49.398h-20.163v19.454h20.163z" fill="#f7932a"/><g transform="translate(23.977 28.367)"><path d="m0 0 0.022-0.035v0.057z" fill="#f7932a"/></g><g transform="translate(43.639 49.398)"><path d="m0 0-18.049-20.902h-1.499l18.194 20.902z" fill="#f7932a"/></g><path d="m5.131 79.664h11.827v12.736h-11.827z" fill="#f7932a"/><g transform="translate(27.074 28.496)"><path d="m0 0v-8.53h-7.928v8.53h3.484l0.158-0.279v0.279h1.211v-0.107l-0.022-0.022 0.022-0.036v0.058l0.093 0.107z" fill="#532971"/></g><g transform="translate(22.63 28.496)"><path d="m0 0 0.158-0.279v0.279z" fill="#532971"/></g><g transform="translate(23.977 28.367)"><path d="m0 0 0.022-0.035v0.057z" fill="#532971"/></g><g transform="translate(23.998 28.496)"><path d="m0 0v-0.107l0.093 0.107z" fill="#532971"/></g><g clip-path="url(#clipPath62)"><g transform="translate(164.63 80.84)"><path d="m0 0c-3.645 5.62-8.526 8.43-14.646 8.43h-34.545v-11.17h32.593c2.89 0 5.156-1.534 6.795-4.602 1.458-2.731 2.188-6.125 2.188-10.181 0-4.187-0.756-7.736-2.265-10.648-1.693-3.251-3.933-4.876-6.718-4.876h-12.224v23.49h-11.756v-34.973h25.932c6.25 0 11.17 2.707 14.763 8.118 3.203 4.813 4.804 10.784 4.804 17.913 0 7.259-1.64 13.425-4.921 18.499" fill="#f7932a"/></g><g transform="translate(77.653 29.081)"><path d="m0 0v-11.001h-2.547v4.51h-4.997v-4.51h-2.546v11.001h2.546v-4.337h4.997v4.337z" fill="#532971"/></g><g transform="translate(86.263 22.308)"><path d="m0 0c0 1.461-0.927 2.342-2.152 2.342-1.227 0-2.169-0.881-2.169-2.342s0.942-2.342 2.169-2.342c1.225 0 2.152 0.881 2.152 2.342m-6.804 0c0 2.546 1.964 4.354 4.652 4.354 2.687 0 4.636-1.808 4.636-4.354s-1.949-4.354-4.636-4.354c-2.688 0-4.652 1.808-4.652 4.354" fill="#532971"/></g><g transform="translate(95.629 26.662)"><path d="m0 0v-2.263c-0.204 0.015-0.361 0.031-0.55 0.031-1.351 0-2.247-0.739-2.247-2.357v-3.993h-2.452v8.457h2.342v-1.117c0.596 0.817 1.602 1.242 2.907 1.242" fill="#532971"/></g><g transform="translate(105.73 22.92)"><path d="m0 0v-4.84h-2.451v4.464c0 1.366-0.629 1.996-1.713 1.996-1.179 0-2.027-0.724-2.027-2.28v-4.18h-2.453v8.456h2.342v-0.991c0.66 0.723 1.651 1.116 2.798 1.116 1.996 0 3.504-1.163 3.504-3.741" fill="#532971"/></g><g transform="translate(117.44 20.171)"><path d="m0 0c2.186 0 3.615 1.304 3.615 3.41s-1.429 3.411-3.615 3.411h-2.326v-6.821zm-4.871 8.91h4.997c3.6 0 6.067-2.168 6.067-5.5s-2.467-5.501-6.067-5.501h-4.997z" fill="#532971"/></g><path d="m125.38 26.536h2.451v-8.456h-2.451zm-0.298 2.545c0 0.771 0.613 1.368 1.524 1.368s1.524-0.566 1.524-1.32c0-0.817-0.613-1.415-1.524-1.415s-1.524 0.598-1.524 1.367" fill="#532971"/><g transform="translate(136.41 22.575)"><path d="m0 0c0 1.242-0.929 2.075-2.217 2.075-1.289 0-2.231-0.833-2.231-2.075 0-1.241 0.942-2.074 2.231-2.074 1.288 0 2.217 0.833 2.217 2.074m2.419 3.961v-7.041c0-3.143-1.697-4.589-4.745-4.589-1.605 0-3.16 0.393-4.15 1.163l0.974 1.76c0.724-0.581 1.901-0.959 2.986-0.959 1.729 0 2.484 0.786 2.484 2.311v0.361c-0.645-0.707-1.572-1.052-2.672-1.052-2.342 0-4.228 1.618-4.228 4.085 0 2.468 1.886 4.087 4.228 4.087 1.179 0 2.153-0.394 2.797-1.211v1.085z" fill="#532971"/></g><path d="m141.11 26.536h2.451v-8.456h-2.451zm-0.299 2.545c0 0.771 0.613 1.368 1.524 1.368 0.912 0 1.525-0.566 1.525-1.32 0-0.817-0.613-1.415-1.525-1.415-0.911 0-1.524 0.598-1.524 1.367" fill="#532971"/><g transform="translate(150.93 18.489)"><path d="m0 0c-0.503-0.362-1.241-0.535-1.98-0.535-2.012 0-3.159 1.022-3.159 3.034v7.418h2.451v-2.059h2.09v-1.886h-2.09v-3.442c0-0.723 0.377-1.116 1.038-1.116 0.361 0 0.722 0.11 1.005 0.315z" fill="#532971"/></g><g transform="translate(158.22 22.308)"><path d="m0 0c0 1.461-0.943 2.342-2.153 2.342-1.226 0-2.169-0.881-2.169-2.342s0.943-2.342 2.169-2.342c1.21 0 2.153 0.881 2.153 2.342m2.404 4.228v-8.456h-2.342v0.975c-0.613-0.739-1.508-1.101-2.64-1.101-2.389 0-4.227 1.698-4.227 4.354s1.838 4.354 4.227 4.354c1.038 0 1.918-0.331 2.531-1.022v0.896z" fill="#532971"/></g><g transform="translate(162.89 20.878)"><path d="m0 0v8.863h2.451v-8.722c0-0.723 0.377-1.116 1.053-1.116 0.267 0 0.551 0.079 0.692 0.158l0.111-1.902c-0.425-0.142-0.85-0.204-1.274-0.204-1.902 0-3.033 1.037-3.033 2.923" fill="#532971"/></g><g transform="translate(100.83 78.1)"><path d="m0 0v-9.451h-21.168v20.621h-11.756v-52.96h11.756v20.895h21.168v-20.895h11.756v41.79z" fill="#532971"/></g><g transform="translate(136.32 9.0454)"><path d="m0 0h-1.628v-4.774h1.628c0.77 0 1.384 0.215 1.842 0.644 0.459 0.429 0.687 1.01 0.687 1.743s-0.228 1.315-0.687 1.743c-0.458 0.43-1.072 0.644-1.842 0.644" fill="#f7932a"/></g><g transform="translate(163.58 5.5367)"><path d="m0 0v-2.728h-1.782v2.75l-2.982 4.95h1.893l2.057-3.421 2.056 3.421h1.749zm-7.194-2.728-0.011 4.62-2.267-3.806h-0.802l-2.255 3.707v-4.521h-1.672v7.7h1.473l2.882-4.785 2.839 4.785h1.463l0.022-7.7zm-8.426 0h-5.962v7.7h5.819v-1.43h-4.049v-1.672h3.576v-1.386h-3.576v-1.782h4.192zm-7.838 1.826c-0.355-0.579-0.854-1.029-1.495-1.348-0.643-0.318-1.381-0.478-2.217-0.478h-3.498v7.7h3.498c0.836 0 1.574-0.16 2.217-0.478 0.641-0.32 1.14-0.769 1.495-1.348 0.356-0.58 0.534-1.254 0.534-2.024s-0.178-1.445-0.534-2.024m-9.884-1.826-0.681 1.65h-3.576l-0.682-1.65h-1.825l3.431 7.7h1.76l3.443-7.7zm-12.181 2.574c0.209-0.374 0.5-0.665 0.874-0.874s0.799-0.314 1.276-0.314c0.769 0 1.415 0.304 1.935 0.913l1.145-1.056c-0.367-0.448-0.821-0.788-1.364-1.023s-1.148-0.352-1.816-0.352c-0.784 0-1.494 0.171-2.128 0.511-0.634 0.342-1.132 0.814-1.496 1.419-0.363 0.605-0.545 1.289-0.545 2.052s0.182 1.446 0.545 2.051c0.364 0.605 0.862 1.078 1.496 1.419 0.634 0.342 1.348 0.512 2.14 0.512 0.667 0 1.271-0.117 1.81-0.352 0.538-0.235 0.991-0.572 1.358-1.012l-1.145-1.056c-0.52 0.601-1.166 0.902-1.935 0.902-0.477 0-0.902-0.105-1.276-0.314s-0.665-0.5-0.874-0.874-0.314-0.799-0.314-1.276 0.105-0.902 0.314-1.276m-4.307-2.574-0.682 1.65h-3.575l-0.683-1.65h-1.825l3.432 7.7h1.76l3.443-7.7zm-8.379-2.809h62.158v13.532h-62.158z" fill="#f7932a"/></g><g transform="translate(126.55 5.8116)"><path d="m0 0h2.441l-1.22 2.948z" fill="#f7932a"/></g><g transform="translate(110.06 5.8116)"><path d="m0 0h2.441l-1.22 2.948z" fill="#f7932a"/></g></g></g></svg>
